<svg width="22" height="21" viewBox="0 0 22 21" fill="none" xmlns="http://www.w3.org/2000/svg">
<path d="M19.356 14V7C19.3556 6.69311 19.2746 6.39171 19.1211 6.12602C18.9675 5.86032 18.7467 5.63969 18.481 5.48625L12.356 1.98625C12.0899 1.83265 11.7881 1.75179 11.481 1.75179C11.1738 1.75179 10.872 1.83265 10.606 1.98625L4.48096 5.48625C4.21519 5.63969 3.99444 5.86032 3.84086 6.12602C3.68728 6.39171 3.60627 6.69311 3.60596 7V14C3.60627 14.3069 3.68728 14.6083 3.84086 14.874C3.99444 15.1397 4.21519 15.3603 4.48096 15.5137L10.606 19.0137C10.872 19.1673 11.1738 19.2482 11.481 19.2482C11.7881 19.2482 12.0899 19.1673 12.356 19.0137L18.481 15.5137C18.7467 15.3603 18.9675 15.1397 19.1211 14.874C19.2746 14.6083 19.3556 14.3069 19.356 14Z" stroke="white" stroke-width="2" stroke-linecap="round" stroke-linejoin="round"/>
<path d="M3.8422 6.09L11.481 10.5087L19.1197 6.09" stroke="white" stroke-width="2" stroke-linecap="round" stroke-linejoin="round"/>
<path d="M11.481 19.32V10.5" stroke="white" stroke-width="2" stroke-linecap="round" stroke-linejoin="round"/>
</svg>
