<svg width="11" height="10" viewBox="0 0 11 10" fill="none" xmlns="http://www.w3.org/2000/svg">
<path d="M10.7174 0.263604C11.0688 0.615076 11.0688 1.18492 10.7174 1.5364L7.25396 5L10.7174 8.46362C11.0395 8.7858 11.0664 9.29148 10.7979 9.64424L10.7174 9.73641C10.3659 10.0879 9.79604 10.0879 9.44457 9.73641L5.98096 6.273L2.51735 9.73641C2.16588 10.0879 1.59603 10.0879 1.24456 9.73641C0.893089 9.38494 0.893089 8.81509 1.24456 8.46362L4.70796 5L1.24456 1.5364C0.922378 1.21421 0.89553 0.708534 1.16402 0.355769L1.24456 0.263604C1.59603 -0.087868 2.16588 -0.087868 2.51735 0.263604L5.98096 3.727L9.44457 0.263604C9.79604 -0.087868 10.3659 -0.087868 10.7174 0.263604Z" fill="#6F6E73"/>
</svg>
