<svg width="18" height="18" viewBox="0 0 18 18" fill="none" xmlns="http://www.w3.org/2000/svg">
<path fill-rule="evenodd" clip-rule="evenodd" d="M8.98096 0.75C4.42471 0.75 0.730957 4.44375 0.730957 9C0.730957 13.5562 4.42471 17.25 8.98096 17.25C13.5372 17.25 17.231 13.5562 17.231 9C17.231 4.44375 13.5372 0.75 8.98096 0.75ZM8.60596 4.5C8.40704 4.5 8.21628 4.57902 8.07563 4.71967C7.93497 4.86032 7.85596 5.05109 7.85596 5.25C7.85596 5.44891 7.93497 5.63968 8.07563 5.78033C8.21628 5.92098 8.40704 6 8.60596 6H8.98096C9.17987 6 9.37064 5.92098 9.51129 5.78033C9.65194 5.63968 9.73096 5.44891 9.73096 5.25C9.73096 5.05109 9.65194 4.86032 9.51129 4.71967C9.37064 4.57902 9.17987 4.5 8.98096 4.5H8.60596ZM7.48096 7.5C7.28204 7.5 7.09128 7.57902 6.95063 7.71967C6.80997 7.86032 6.73096 8.05109 6.73096 8.25C6.73096 8.44891 6.80997 8.63968 6.95063 8.78033C7.09128 8.92098 7.28204 9 7.48096 9H8.23096V11.25H7.48096C7.28204 11.25 7.09128 11.329 6.95063 11.4697C6.80997 11.6103 6.73096 11.8011 6.73096 12C6.73096 12.1989 6.80997 12.3897 6.95063 12.5303C7.09128 12.671 7.28204 12.75 7.48096 12.75H10.481C10.6799 12.75 10.8706 12.671 11.0113 12.5303C11.1519 12.3897 11.231 12.1989 11.231 12C11.231 11.8011 11.1519 11.6103 11.0113 11.4697C10.8706 11.329 10.6799 11.25 10.481 11.25H9.73096V8.25C9.73096 8.05109 9.65194 7.86032 9.51129 7.71967C9.37064 7.57902 9.17987 7.5 8.98096 7.5H7.48096Z" fill="#6F6E73"/>
</svg>
