<svg width="22" height="21" viewBox="0 0 22 21" fill="none" xmlns="http://www.w3.org/2000/svg">
<g clip-path="url(#clip0_2_2489)">
<path d="M2.73096 7L3.87196 7.91263C4.26946 8.23056 4.73152 8.45796 5.22593 8.57899C5.72034 8.70001 6.23519 8.71174 6.7346 8.61336C7.23401 8.51498 7.70595 8.30885 8.11751 8.00935C8.52908 7.70985 8.87037 7.32419 9.11758 6.87925L11.481 2.625L13.8443 6.87925C14.0916 7.32412 14.433 7.7097 14.8446 8.00912C15.2562 8.30853 15.7281 8.51457 16.2275 8.61286C16.7269 8.71116 17.2418 8.69935 17.7361 8.57826C18.2305 8.45718 18.6925 8.22972 19.09 7.91175L20.231 7L18.6962 14.6738C18.6292 15.0086 18.4866 15.3238 18.2793 15.5952C18.072 15.8667 17.8055 16.0872 17.5001 16.24V16.24C15.6312 17.1745 13.5704 17.661 11.481 17.661C9.39148 17.661 7.33069 17.1745 5.46183 16.24V16.24C5.15639 16.0872 4.88987 15.8667 4.68258 15.5952C4.4753 15.3238 4.33271 15.0086 4.26571 14.6738L2.73096 7Z" stroke="white" stroke-width="2" stroke-linecap="round" stroke-linejoin="round"/>
<path d="M7.98096 13.125C10.2525 14.2914 12.7095 14.2914 14.981 13.125" stroke="white" stroke-width="2" stroke-linecap="round" stroke-linejoin="round"/>
</g>
<defs>
<clipPath id="clip0_2_2489">
<rect width="21" height="21" fill="white" transform="translate(0.980957)"/>
</clipPath>
</defs>
</svg>
