<svg width="22" height="21" viewBox="0 0 22 21" fill="none" xmlns="http://www.w3.org/2000/svg">
<g clip-path="url(#clip0_2_2517)">
<path d="M8.85595 13.125L6.25895 15.722C5.96991 16.011 5.60168 16.2078 5.20081 16.2875C4.79995 16.3672 4.38444 16.3263 4.00683 16.1699C3.62922 16.0135 3.30647 15.7486 3.07936 15.4088C2.85226 15.069 2.73101 14.6695 2.73095 14.2608V13.125L3.91832 7.189C4.07691 6.39557 4.5055 5.68159 5.13118 5.16855C5.75685 4.6555 6.54095 4.37508 7.35007 4.375H15.6118C16.421 4.37508 17.2051 4.6555 17.8307 5.16855C18.4564 5.68159 18.885 6.39557 19.0436 7.189L20.231 13.125V14.2599C20.2309 14.6686 20.1096 15.0681 19.8825 15.4079C19.6554 15.7477 19.3327 16.0126 18.9551 16.169C18.5775 16.3254 18.162 16.3663 17.7611 16.2866C17.3602 16.2069 16.992 16.0101 16.703 15.7211L14.106 13.125H8.85595Z" stroke="white" stroke-width="2" stroke-linecap="round" stroke-linejoin="round"/>
<path d="M8.85596 4.375L9.73096 6.125H13.231L14.106 4.375" stroke="white" stroke-width="2" stroke-linecap="round" stroke-linejoin="round"/>
</g>
<defs>
<clipPath id="clip0_2_2517">
<rect width="21" height="21" fill="white" transform="translate(0.980957)"/>
</clipPath>
</defs>
</svg>
