<svg width="22" height="21" viewBox="0 0 22 21" fill="none" xmlns="http://www.w3.org/2000/svg">
<path d="M4.46083 8.61C4.49603 8.17145 4.69512 7.76226 5.01845 7.4639C5.34178 7.16554 5.76563 6.99991 6.20558 7H16.7563C17.1963 6.99991 17.6201 7.16554 17.9435 7.4639C18.2668 7.76226 18.4659 8.17145 18.5011 8.61L19.2037 17.36C19.223 17.6008 19.1923 17.843 19.1134 18.0713C19.0346 18.2996 18.9093 18.5092 18.7455 18.6867C18.5817 18.8643 18.3829 19.006 18.1616 19.1029C17.9403 19.1998 17.7014 19.2499 17.4598 19.25H5.50208C5.26051 19.2499 5.02158 19.1998 4.80031 19.1029C4.57905 19.006 4.38025 18.8643 4.21644 18.6867C4.05263 18.5092 3.92735 18.2996 3.84848 18.0713C3.76962 17.843 3.73888 17.6008 3.75821 17.36L4.46083 8.61V8.61Z" stroke="white" stroke-width="2" stroke-linecap="round" stroke-linejoin="round"/>
<path d="M14.9809 9.625V5.25C14.9809 4.32174 14.6122 3.4315 13.9558 2.77513C13.2994 2.11875 12.4092 1.75 11.4809 1.75C10.5527 1.75 9.66245 2.11875 9.00608 2.77513C8.3497 3.4315 7.98095 4.32174 7.98095 5.25V9.625" stroke="white" stroke-width="2" stroke-linecap="round" stroke-linejoin="round"/>
</svg>
