<svg width="22" height="21" viewBox="0 0 22 21" fill="none" xmlns="http://www.w3.org/2000/svg">
<g clip-path="url(#clip0_2_2499)">
<path d="M5.73567 9.11321C8.1428 9.11321 10.0942 7.16184 10.0942 4.75472C10.0942 2.34759 8.1428 0.396226 5.73567 0.396226C3.32854 0.396226 1.37718 2.34759 1.37718 4.75472C1.37718 7.16184 3.32854 9.11321 5.73567 9.11321Z" fill="white"/>
</g>
<g clip-path="url(#clip1_2_2499)">
<path d="M16.5467 1.52863C16.8546 1.01592 17.5979 1.01592 17.9058 1.52863L21.261 7.12058C21.578 7.64875 21.1976 8.32075 20.5815 8.32075H13.871C13.2553 8.32075 12.8749 7.64875 13.1915 7.12058L16.5467 1.52863Z" fill="white"/>
</g>
<g clip-path="url(#clip2_2_2499)">
<path d="M20.3961 12.283H14.0564C13.6188 12.283 13.264 12.6378 13.264 13.0755V19.4151C13.264 19.8528 13.6188 20.2075 14.0564 20.2075H20.3961C20.8337 20.2075 21.1885 19.8528 21.1885 19.4151V13.0755C21.1885 12.6378 20.8337 12.283 20.3961 12.283Z" fill="white"/>
<g clip-path="url(#clip3_2_2499)">
<path d="M16.6754 12.5112C16.8215 12.3652 17.0196 12.2831 17.2262 12.2831C17.4327 12.2831 17.6308 12.3652 17.7769 12.5112L20.9602 15.6945C21.1062 15.8406 21.1883 16.0387 21.1883 16.2453C21.1883 16.4518 21.1062 16.6499 20.9602 16.796L17.7769 19.9793C17.6308 20.1254 17.4327 20.2074 17.2262 20.2074C17.0196 20.2074 16.8215 20.1254 16.6754 19.9793L13.4921 16.796C13.3461 16.6499 13.264 16.4518 13.264 16.2453C13.264 16.0387 13.3461 15.8406 13.4921 15.6945L16.6754 12.5112Z" fill="white"/>
</g>
</g>
<path d="M5.18483 12.5112C5.33092 12.3652 5.52902 12.2831 5.73559 12.2831C5.94215 12.2831 6.14026 12.3652 6.28634 12.5112L9.46963 15.6945C9.61567 15.8406 9.69772 16.0387 9.69772 16.2453C9.69772 16.4518 9.61567 16.6499 9.46963 16.796L6.28634 19.9793C6.14026 20.1254 5.94215 20.2074 5.73559 20.2074C5.52902 20.2074 5.33092 20.1254 5.18483 19.9793L2.00155 16.796C1.8555 16.6499 1.77346 16.4518 1.77346 16.2453C1.77346 16.0387 1.8555 15.8406 2.00155 15.6945L5.18483 12.5112Z" fill="white"/>
<defs>
<clipPath id="clip0_2_2499">
<rect width="9.50943" height="9.50943" fill="white" transform="translate(0.980957)"/>
</clipPath>
<clipPath id="clip1_2_2499">
<rect width="9.50943" height="9.50943" fill="white" transform="translate(12.4715)"/>
</clipPath>
<clipPath id="clip2_2_2499">
<rect width="9.50943" height="9.50943" fill="white" transform="translate(12.4715 11.4906)"/>
</clipPath>
<clipPath id="clip3_2_2499">
<rect width="9.50943" height="9.50943" fill="white" transform="translate(12.4715 11.4906)"/>
</clipPath>
</defs>
</svg>
